<svg width="13" height="21" viewBox="0 0 13 21" fill="none" xmlns="http://www.w3.org/2000/svg"><path fill-rule="evenodd" clip-rule="evenodd" d="M11.326 20.948C12.6889 20.6614 13.3573 19.2391 12.7153 17.9913C12.633 17.8312 11.7817 16.9848 8.85427 14.1522L5.09884 10.5184L8.81795 6.92632C11.4581 4.37641 12.581 3.26498 12.6885 3.09558C12.8979 2.76533 12.9996 2.41635 13 2.02677C13.0016 0.451814 11.2545 -0.510336 9.83696 0.284839C9.69264 0.365761 8.19688 1.7785 5.24664 4.62032C2.83968 6.9388 0.786868 8.89882 0.684822 8.97588C-0.0652282 9.5425 -0.230023 10.8542 0.3444 11.6855C0.439478 11.8231 0.606482 12.0036 0.715495 12.0867C0.824509 12.1698 2.88284 14.1343 5.28955 16.4521C9.56642 20.571 9.67225 20.6693 9.96968 20.7981C10.4472 21.005 10.8457 21.049 11.326 20.948Z" fill="#fff"/></svg>