<svg width="13" height="21" viewBox="0 0 13 21" fill="none" xmlns="http://www.w3.org/2000/svg"><path fill-rule="evenodd" clip-rule="evenodd" d="M1.67399 0.0520287C0.311066 0.3386 -0.357287 1.76095 0.284684 3.00873C0.367018 3.16876 1.21835 4.01522 4.14573 6.8478L7.90116 10.4816L4.18205 14.0737C1.54195 16.6236 0.418975 17.735 0.311534 17.9044C0.102132 18.2347 0.000383471 18.5837 1.11798e-06 18.9732C-0.00161326 20.5482 1.74549 21.5103 3.16304 20.7152C3.30736 20.6342 4.80312 19.2215 7.75336 16.3797C10.1603 14.0612 12.2131 12.1012 12.3152 12.0241C13.0652 11.4575 13.23 10.1458 12.6556 9.3145C12.5605 9.17692 12.3935 8.99635 12.2845 8.91325C12.1755 8.83016 10.1172 6.86574 7.71045 4.54788C3.43358 0.428965 3.32775 0.330677 3.03032 0.201884C2.5528 -0.00495721 2.15431 -0.0489694 1.67399 0.0520287Z" fill="#fff"/></svg>