<svg width="82" height="82" viewBox="0 0 82 82" fill="none" xmlns="http://www.w3.org/2000/svg"><g filter="url(#filter0_d_0_571)"><circle cx="41.5" cy="35.5" r="26.5" fill="#fff"/><path fill-rule="evenodd" clip-rule="evenodd" d="M38.9234 7.05459C32.0038 7.55237 25.4593 10.5539 20.4866 15.5102C15.8361 20.1453 12.9617 26.088 12.136 32.7744C11.9336 34.4131 11.9615 37.9337 12.1903 39.6454C13.0595 46.1463 15.9144 51.9481 20.4892 56.5105C25.1933 61.2018 31.078 64.0494 37.7547 64.8654C39.3946 65.0658 42.9178 65.0381 44.6256 64.8113C54.7311 63.4691 63.2882 57.1278 67.4735 47.8792C70.0052 42.2849 70.6664 35.7279 69.3115 29.6512C66.68 17.8489 56.7038 8.74803 44.7391 7.23483C42.988 7.01337 40.5476 6.93773 38.9234 7.05459ZM55.0181 25.8881C55.5068 26.1101 56.1582 26.7759 56.3307 27.2295C56.4936 27.6578 56.4566 28.702 56.2618 29.1722C56.1397 29.467 53.6309 32.0522 47.9479 37.7392C39.041 46.6523 39.3032 46.4238 38.1025 46.3217C37.7862 46.2949 37.3462 46.1862 37.1246 46.0802C36.8956 45.9707 34.8806 44.0377 32.4568 41.6024C28.5473 37.6741 28.18 37.2722 28.0467 36.7777C27.7475 35.6664 28.1086 34.6013 28.9866 34.0057C29.6415 33.5615 30.2541 33.4489 31.029 33.6302C31.5992 33.7637 31.7502 33.8965 34.9459 37.0739L38.2697 40.3789L45.451 33.2021C50.0508 28.605 52.775 25.9642 53.0296 25.8553C53.5715 25.6235 54.4681 25.6382 55.0181 25.8881Z" fill="#0E9540"/></g><defs><filter id="filter0_d_0_571" x="0" y="0" width="82" height="82" filterUnits="userSpaceOnUse" color-interpolation-filters="sRGB"><feFlood flood-opacity="0" result="BackgroundImageFix"/><feColorMatrix in="SourceAlpha" values="0 0 0 0 0 0 0 0 0 0 0 0 0 0 0 0 0 0 127 0" result="hardAlpha"/><feOffset dy="5"/><feGaussianBlur stdDeviation="6"/><feComposite in2="hardAlpha" operator="out"/><feColorMatrix values="0 0 0 0 0.0534722 0 0 0 0 0.583333 0 0 0 0 0.251409 0 0 0 0.56 0"/><feBlend in2="BackgroundImageFix" result="effect1_dropShadow_0_571"/><feBlend in="SourceGraphic" in2="effect1_dropShadow_0_571" result="shape"/></filter></defs></svg>