<svg width="20" height="21" viewBox="0 0 20 21" fill="none" xmlns="http://www.w3.org/2000/svg"><path fill-rule="evenodd" clip-rule="evenodd" d="M9.28393 0.282497C6.89786 0.454144 4.64114 1.48916 2.92641 3.19822C1.32279 4.79654 0.33161 6.84573 0.0469059 9.15139C-0.02288 9.71646 -0.0132854 10.9305 0.0656251 11.5207C0.365328 13.7624 1.34981 15.763 2.92731 17.3362C4.54942 18.9539 6.57862 19.9359 8.88092 20.2173C9.44642 20.2864 10.6613 20.2768 11.2502 20.1986C14.7349 19.7358 17.6856 17.5491 19.1288 14.3599C20.0018 12.4309 20.2298 10.1698 19.7626 8.07444C18.8552 4.00469 15.4151 0.866441 11.2894 0.344647C10.6855 0.268281 9.84398 0.242199 9.28393 0.282497ZM14.8338 6.77681C15.0023 6.85337 15.227 7.08293 15.2865 7.23935C15.3426 7.38707 15.3298 7.74712 15.2627 7.90925C15.2206 8.01092 14.3555 8.90236 12.3958 10.8634C9.32447 13.9369 9.41489 13.8581 9.00088 13.8229C8.89181 13.8136 8.74006 13.7761 8.66366 13.7396C8.58471 13.7019 7.88986 13.0353 7.05408 12.1955C5.70598 10.841 5.57929 10.7024 5.53336 10.5319C5.43017 10.1487 5.5547 9.78135 5.85746 9.57598C6.08326 9.42282 6.2945 9.38397 6.56174 9.44652C6.75833 9.49253 6.81041 9.53831 7.91238 10.634L9.05852 11.7736L11.5348 9.29888C13.121 7.71368 14.0603 6.80304 14.1481 6.76549C14.335 6.68556 14.6442 6.69065 14.8338 6.77681Z" fill="#0E9540"/></svg>