<svg width="28" height="28" viewBox="0 0 28 28" fill="none" xmlns="http://www.w3.org/2000/svg"><path fill-rule="evenodd" clip-rule="evenodd" d="M12.9975 0.0263549C9.65701 0.266661 6.4976 1.71568 4.09698 4.10837C1.8519 6.34602 0.464254 9.21488 0.0656682 12.4428C-0.0320319 13.2339 -0.0185996 14.9335 0.0918751 15.7598C0.511459 18.8982 1.88973 21.6991 4.09824 23.9016C6.36919 26.1664 9.21006 27.5411 12.4333 27.935C13.225 28.0318 14.9259 28.0184 15.7503 27.9089C20.6288 27.2609 24.7598 24.1996 26.7803 19.7348C28.0025 17.0341 28.3217 13.8686 27.6676 10.9351C26.3972 5.23742 21.5811 0.843877 15.8051 0.113365C14.9597 0.00645276 13.7816 -0.0300619 12.9975 0.0263549ZM20.7674 9.11839C21.0033 9.22557 21.3178 9.54697 21.401 9.76595C21.4797 9.97275 21.4618 10.4768 21.3678 10.7038C21.3088 10.8461 20.0977 12.0942 17.3542 14.8396C13.0543 19.1425 13.1808 19.0322 12.6012 18.9829C12.4485 18.9699 12.2361 18.9175 12.1291 18.8663C12.0186 18.8135 11.0458 17.8803 9.87571 16.7046C7.98837 14.8082 7.81101 14.6142 7.7467 14.3755C7.60223 13.839 7.77658 13.3247 8.20044 13.0372C8.51657 12.8228 8.8123 12.7684 9.18643 12.856C9.46166 12.9204 9.53458 12.9845 11.0773 14.5184L12.6819 16.114L16.1488 12.6493C18.3694 10.43 19.6845 9.15512 19.8074 9.10254C20.069 8.99064 20.5018 8.99777 20.7674 9.11839Z" fill="#0E9540"/></svg>