<svg width="10" height="10" viewBox="0 0 10 10" fill="none" xmlns="http://www.w3.org/2000/svg"><path fill-rule="evenodd" clip-rule="evenodd" d="M0.770291 0.0245958C0.43873 0.106093 0.152492 0.396127 0.0760761 0.727986C0.0211971 0.96637 0.0623563 1.24365 0.183039 1.44842C0.209189 1.49277 1.00058 2.30725 1.94169 3.25837L3.6528 4.98769L1.9172 6.74716C0.0485584 8.64152 0.100564 8.58325 0.0284479 8.86326C-0.0296363 9.08884 0.00155563 9.32461 0.118994 9.54746C0.303898 9.89831 0.736109 10.0685 1.19326 9.97054C1.46566 9.91213 1.39471 9.97659 3.25272 8.09958C4.19872 7.14389 4.98133 6.36197 4.99186 6.36197C5.00238 6.36197 5.78505 7.1437 6.7311 8.09915C8.32621 9.7101 8.46044 9.84069 8.57825 9.89624C8.98231 10.0868 9.47163 10.0092 9.7513 9.71008C10.0142 9.42894 10.075 8.999 9.90326 8.6364C9.8464 8.5164 9.71012 8.37408 8.09114 6.74402L6.34048 4.9814L8.04337 3.25523C9.10409 2.18001 9.76497 1.49552 9.79588 1.44011C9.8824 1.28507 9.91258 1.14043 9.90269 0.928419C9.89206 0.701005 9.84507 0.562857 9.72201 0.397293C9.48178 0.0740516 9.04569 -0.0619221 8.66619 0.0680623C8.44992 0.142127 8.35107 0.234694 6.65424 1.95197L4.99407 3.63216L3.28288 1.90854C1.44572 0.0580606 1.4905 0.0988981 1.21919 0.0274224C1.0844 -0.00807818 0.907762 -0.00920487 0.770291 0.0245958Z" fill="#06F"/></svg>