<svg width="165" height="165" viewBox="0 0 165 165" fill="none" xmlns="http://www.w3.org/2000/svg"><circle cx="82.5" cy="82.5" r="82.5" fill="#0E9540" fill-opacity=".03"/><path fill-rule="evenodd" clip-rule="evenodd" d="M77.5533 55.3689C76.6064 56.3388 76.6346 56.9657 77.7863 60.5472C78.6827 63.3343 78.8437 63.7151 79.3358 64.2101C79.9533 64.8311 81.1072 65.1134 81.9371 64.8465C82.767 64.5796 83.54 63.6777 83.6798 62.8131C83.7911 62.1241 83.7 61.7207 82.8037 58.9337C81.9074 56.1466 81.7463 55.7657 81.2543 55.2708C80.2477 54.2583 78.5949 54.3022 77.5533 55.3689ZM64.8742 65.7205C64.1846 66.1355 63.6155 67.3675 63.7225 68.2133C63.8798 69.4571 64.3638 69.8734 67.4962 71.4607C70.6475 73.0575 71.2478 73.1927 72.3358 72.5504C73.7178 71.7348 74.0109 69.6268 72.8948 68.5303C72.2527 67.8994 66.6392 65.148 66.2497 65.2733C66.0579 65.335 65.7911 65.3879 65.6569 65.3908C65.5226 65.3939 65.1704 65.5421 64.8742 65.7205ZM94.9933 56.0307C94.6101 56.2618 94.0752 57.1097 92.9987 59.1929C92.1897 60.7584 91.4855 62.2774 91.4338 62.5683C91.1606 64.107 92.6296 65.6526 94.2292 65.5096C95.4876 65.3973 95.8965 64.9376 97.5264 61.8032C99.1535 58.6742 99.2982 58.0698 98.6895 56.9461C98.3142 56.2532 96.8761 55.4241 96.3455 55.5947C96.1583 55.6549 95.8952 55.7067 95.761 55.7095C95.6267 55.7126 95.2814 55.8569 94.9933 56.0307ZM80.1207 71.2488C79.2008 72.0615 79.1641 72.6648 79.7237 77.7786C80.5242 85.0926 80.4311 87.3945 79.2354 89.848C78.3523 91.6598 77.3489 92.8947 73.9638 96.3354C72.4018 97.923 70.5193 99.8627 69.7804 100.646C69.0416 101.429 68.4016 102.081 68.3585 102.095C68.3155 102.109 68.0143 101.852 67.6891 101.525C66.9115 100.743 64.8529 99.7311 63.6877 99.5582C61.7314 99.2675 61.4428 99.3358 52.6396 102.164C44.7051 104.714 44.3748 104.834 43.8439 105.363C43.4887 105.716 43.2478 106.186 43.1679 106.681C43.0452 107.441 43.1334 107.729 50.4777 130.567C57.8221 153.404 57.9184 153.689 58.4609 154.235C58.8145 154.591 59.2841 154.832 59.7788 154.913C60.5176 155.033 60.8592 154.937 68.657 152.429C74.0288 150.702 77.0456 149.661 77.5926 149.348C78.7451 148.687 79.9636 147.438 80.6364 146.227L81.2068 145.2L82.5322 145.165C86.1054 145.072 90.2219 144.608 94.2419 143.845C96.5124 143.414 121.22 135.629 122.492 134.944C125.48 133.334 127.097 130.085 126.595 126.699C126.433 125.608 125.906 124.334 125.173 123.262C124.998 123.005 125.108 122.833 125.886 122.147C129.527 118.938 129.314 113.191 125.439 110.088L124.674 109.476L124.939 108.533C125.417 106.827 125.387 105.657 124.818 103.888C124.249 102.119 123.592 101.151 122.209 100.044L121.444 99.4315L121.709 98.4884C122.492 95.694 121.815 92.9162 119.836 90.8115C118.406 89.291 116.691 88.5097 114.427 88.3473C113.397 88.2732 113.164 88.3344 105.703 90.6416L98.0378 93.0119L98.2162 91.0149C98.6748 85.8827 98.595 82.9873 97.9209 80.31C96.3759 74.1731 90.9799 70.0123 84.6622 70.0867C82.9537 70.1067 80.7853 70.6616 80.1207 71.2488ZM86.6125 75.5602C88.7289 75.9954 90.9121 77.6264 92.0396 79.6145C93.0635 81.4202 93.4433 84.575 93.1197 88.5899C93.0398 89.5808 92.8946 91.3939 92.797 92.6191L92.6198 94.8467L90.639 95.4837C88.9838 96.016 88.5674 96.211 88.1066 96.67C87.4864 97.2876 87.205 98.4423 87.4722 99.273C87.7393 100.104 88.641 100.878 89.505 101.018C90.2536 101.14 90.5772 101.045 102.077 97.347C113.578 93.6486 113.901 93.5541 114.65 93.6756C115.514 93.816 116.416 94.5902 116.683 95.4209C116.95 96.2516 116.669 97.4063 116.048 98.024C115.556 98.5145 115.173 98.6772 112.473 99.5457C109.772 100.414 109.39 100.577 108.898 101.067C108.277 101.685 107.996 102.84 108.263 103.67C108.53 104.501 109.432 105.275 110.296 105.416C110.982 105.527 111.388 105.437 114.088 104.568C117.607 103.436 118.222 103.416 119.198 104.398C119.894 105.097 120.112 105.776 119.955 106.75C119.734 108.117 119.222 108.459 115.703 109.59C112.184 110.722 111.673 111.064 111.452 112.431C111.295 113.405 111.513 114.084 112.208 114.783C113.185 115.765 113.799 115.745 117.318 114.613C120.837 113.481 121.452 113.461 122.428 114.443C123.124 115.142 123.342 115.821 123.185 116.795C122.964 118.162 122.453 118.504 118.934 119.635C116.233 120.504 115.851 120.666 115.358 121.157C114.738 121.775 114.457 122.929 114.724 123.76C115.134 125.034 116.768 125.874 118.04 125.464C119.313 125.055 120.947 125.895 121.356 127.169C121.624 128 121.342 129.154 120.722 129.772C120.185 130.306 119.866 130.419 108.741 133.997C97.5214 137.605 94.477 138.472 91.0337 139.04C88.7882 139.41 85.4966 139.75 83.1752 139.852L81.2645 139.936L76.0207 123.631L70.777 107.325L72.419 105.545C73.3221 104.566 75.283 102.529 76.7765 101.019C80.1325 97.6254 81.5107 96.091 82.6731 94.4536C85.5019 90.4689 86.0698 86.5308 85.0495 77.9772C84.9211 76.9009 84.8115 75.8729 84.806 75.6925C84.7936 75.2916 85.1714 75.2639 86.6125 75.5602ZM62.8613 104.789C63.356 104.869 63.8256 105.11 64.1791 105.466C64.7195 106.01 64.8216 106.308 70.5472 124.112C76.2728 141.916 76.3641 142.219 76.2418 142.975C76.1619 143.47 75.921 143.94 75.5658 144.294C75.0408 144.817 74.6987 144.945 68.485 146.943L61.9558 149.043L55.4951 128.953L49.0344 108.863L55.5637 106.764C61.7773 104.765 62.1299 104.67 62.8613 104.789ZM65.1518 137.312C64.5657 137.912 64.2915 139.09 64.5504 139.895C64.96 141.169 66.5941 142.009 67.8666 141.6C69.1392 141.191 69.9774 139.556 69.5677 138.282C69.3006 137.451 68.3989 136.677 67.5349 136.537C66.5756 136.381 65.8216 136.626 65.1518 137.312Z" fill="#0E9540"/></svg>