<svg width="193" height="60" viewBox="0 0 193 60" fill="none" xmlns="http://www.w3.org/2000/svg"><path d="M75.26 23.86H76.98C77.58 23.0333 78.04 22.1667 78.36 21.26C78.6933 20.34 78.9333 19.3933 79.08 18.42C79.24 17.4333 79.3333 16.42 79.36 15.38C79.3867 14.3267 79.4 13.2467 79.4 12.14H87.9V23.86H89.96V29.7H87.54V26H77.68V29.7H75.26V23.86ZM81.82 14.3C81.78 15.1 81.7333 15.92 81.68 16.76C81.6267 17.6 81.5267 18.4333 81.38 19.26C81.2467 20.0733 81.0533 20.8733 80.8 21.66C80.5467 22.4333 80.2 23.1667 79.76 23.86H85.42V14.3H81.82ZM91.253 20.82C91.253 19.9 91.3863 19.0933 91.653 18.4C91.933 17.7067 92.2996 17.1333 92.753 16.68C93.2063 16.2133 93.7263 15.8667 94.313 15.64C94.8996 15.4 95.4996 15.28 96.113 15.28C97.553 15.28 98.673 15.7267 99.473 16.62C100.286 17.5133 100.693 18.8467 100.693 20.62C100.693 20.7533 100.686 20.9067 100.673 21.08C100.673 21.24 100.666 21.3867 100.653 21.52H93.753C93.8196 22.36 94.113 23.0133 94.633 23.48C95.1663 23.9333 95.933 24.16 96.933 24.16C97.5196 24.16 98.053 24.1067 98.533 24C99.0263 23.8933 99.413 23.78 99.693 23.66L100.013 25.64C99.8796 25.7067 99.693 25.78 99.453 25.86C99.2263 25.9267 98.9596 25.9867 98.653 26.04C98.3596 26.1067 98.0396 26.16 97.693 26.2C97.3463 26.24 96.993 26.26 96.633 26.26C95.713 26.26 94.913 26.1267 94.233 25.86C93.553 25.58 92.993 25.2 92.553 24.72C92.113 24.2267 91.7863 23.6533 91.573 23C91.3596 22.3333 91.253 21.6067 91.253 20.82ZM98.273 19.74C98.273 19.4067 98.2263 19.0933 98.133 18.8C98.0396 18.4933 97.8996 18.2333 97.713 18.02C97.5396 17.7933 97.3196 17.62 97.053 17.5C96.7996 17.3667 96.493 17.3 96.133 17.3C95.7596 17.3 95.433 17.3733 95.153 17.52C94.873 17.6533 94.633 17.8333 94.433 18.06C94.2463 18.2867 94.0996 18.5467 93.993 18.84C93.8863 19.1333 93.813 19.4333 93.773 19.74H98.273ZM101.979 24.02H103.179C103.592 23.4733 103.912 22.8667 104.139 22.2C104.379 21.52 104.552 20.8133 104.659 20.08C104.765 19.3333 104.832 18.5733 104.859 17.8C104.885 17.0267 104.905 16.2733 104.919 15.54H112.419V24.02H114.019V28.96H111.859V26H104.119V28.96H101.979V24.02ZM109.999 24.02V17.54H107.159C107.132 18.0867 107.099 18.6467 107.059 19.22C107.019 19.78 106.945 20.34 106.839 20.9C106.732 21.4467 106.585 21.9867 106.399 22.52C106.225 23.04 105.992 23.54 105.699 24.02H109.999ZM124.885 15.54C123.805 19.5133 122.551 23.1133 121.125 26.34C120.858 26.94 120.585 27.4533 120.305 27.88C120.025 28.3067 119.711 28.66 119.365 28.94C119.018 29.22 118.631 29.42 118.205 29.54C117.778 29.6733 117.285 29.74 116.725 29.74C116.351 29.74 115.978 29.7 115.605 29.62C115.245 29.54 114.971 29.4533 114.785 29.36L115.225 27.42C115.705 27.6067 116.178 27.7 116.645 27.7C117.271 27.7 117.758 27.5467 118.105 27.24C118.465 26.9467 118.778 26.4867 119.045 25.86C118.285 24.3933 117.551 22.7933 116.845 21.06C116.151 19.3267 115.531 17.4867 114.985 15.54H117.565C117.698 16.1 117.858 16.7067 118.045 17.36C118.245 18.0133 118.458 18.68 118.685 19.36C118.911 20.0267 119.151 20.6933 119.405 21.36C119.658 22.0267 119.911 22.6467 120.165 23.22C120.591 22.0333 120.991 20.7733 121.365 19.44C121.738 18.0933 122.078 16.7933 122.385 15.54H124.885ZM126.716 15.54H129.136V24.02H132.416V15.54H134.836V24.02H138.116V15.54H140.536V26H126.716V15.54ZM146.03 19.74C146.337 19.4333 146.67 19.0933 147.03 18.72C147.39 18.3333 147.744 17.9467 148.09 17.56C148.45 17.1733 148.79 16.8067 149.11 16.46C149.43 16.1 149.697 15.7933 149.91 15.54H152.75C152.457 15.8867 152.117 16.2667 151.73 16.68C151.357 17.0933 150.964 17.52 150.55 17.96C150.15 18.3867 149.75 18.8067 149.35 19.22C148.964 19.62 148.61 19.98 148.29 20.3C148.704 20.6467 149.13 21.0533 149.57 21.52C150.024 21.9733 150.464 22.46 150.89 22.98C151.33 23.4867 151.737 24.0067 152.11 24.54C152.484 25.06 152.797 25.5467 153.05 26H150.25C149.997 25.6 149.697 25.18 149.35 24.74C149.017 24.3 148.664 23.8733 148.29 23.46C147.917 23.0333 147.537 22.6333 147.15 22.26C146.764 21.8867 146.39 21.5667 146.03 21.3V26H143.61V15.54H146.03V19.74ZM163.962 15.54V26H161.562C161.562 25.24 161.562 24.4867 161.562 23.74C161.575 22.9933 161.582 22.3 161.582 21.66C161.595 21.02 161.602 20.4667 161.602 20C161.615 19.52 161.622 19.1667 161.622 18.94C161.222 19.46 160.808 20.0333 160.382 20.66C159.955 21.2867 159.528 21.9133 159.102 22.54C158.688 23.1667 158.295 23.78 157.922 24.38C157.548 24.98 157.222 25.52 156.942 26H154.802V15.54H157.182C157.182 16.3133 157.175 17.0533 157.162 17.76C157.162 18.4533 157.162 19.0867 157.162 19.66C157.162 20.2333 157.155 20.7333 157.142 21.16C157.142 21.5867 157.142 21.9133 157.142 22.14C157.515 21.5667 157.902 20.98 158.302 20.38C158.702 19.7667 159.102 19.1733 159.502 18.6C159.915 18.0133 160.322 17.46 160.722 16.94C161.122 16.42 161.508 15.9533 161.882 15.54H163.962ZM175.828 26H173.408V21.62H169.468V26H167.048V15.54H169.468V19.62H173.408V15.54H175.828V26ZM83.48 43.82C83.48 42.74 83.2333 41.9 82.74 41.3C82.26 40.7 81.48 40.4 80.4 40.4C80.1733 40.4 79.9333 40.4133 79.68 40.44C79.44 40.4533 79.2 40.4933 78.96 40.56V46.54C79.1733 46.6867 79.4533 46.8267 79.8 46.96C80.16 47.08 80.54 47.14 80.94 47.14C81.82 47.14 82.46 46.84 82.86 46.24C83.2733 45.64 83.48 44.8333 83.48 43.82ZM85.96 43.78C85.96 44.58 85.8533 45.3133 85.64 45.98C85.44 46.6467 85.1467 47.22 84.76 47.7C84.3733 48.18 83.8867 48.5533 83.3 48.82C82.7267 49.0867 82.0733 49.22 81.34 49.22C80.8467 49.22 80.3933 49.16 79.98 49.04C79.5667 48.92 79.2267 48.7867 78.96 48.64V52.7H76.54V38.88C77.0333 38.7467 77.64 38.62 78.36 38.5C79.08 38.38 79.84 38.32 80.64 38.32C81.4667 38.32 82.2067 38.4467 82.86 38.7C83.5133 38.9533 84.0667 39.32 84.52 39.8C84.9867 40.2667 85.34 40.84 85.58 41.52C85.8333 42.1867 85.96 42.94 85.96 43.78ZM96.7597 38.54C95.6797 42.5133 94.4264 46.1133 92.9997 49.34C92.733 49.94 92.4597 50.4533 92.1797 50.88C91.8997 51.3067 91.5864 51.66 91.2397 51.94C90.893 52.22 90.5064 52.42 90.0797 52.54C89.653 52.6733 89.1597 52.74 88.5997 52.74C88.2264 52.74 87.853 52.7 87.4797 52.62C87.1197 52.54 86.8464 52.4533 86.6597 52.36L87.0997 50.42C87.5797 50.6067 88.053 50.7 88.5197 50.7C89.1464 50.7 89.633 50.5467 89.9797 50.24C90.3397 49.9467 90.653 49.4867 90.9197 48.86C90.1597 47.3933 89.4264 45.7933 88.7197 44.06C88.0264 42.3267 87.4064 40.4867 86.8597 38.54H89.4397C89.573 39.1 89.733 39.7067 89.9197 40.36C90.1197 41.0133 90.333 41.68 90.5597 42.36C90.7864 43.0267 91.0264 43.6933 91.2797 44.36C91.533 45.0267 91.7864 45.6467 92.0397 46.22C92.4664 45.0333 92.8664 43.7733 93.2397 42.44C93.613 41.0933 93.953 39.7933 94.2597 38.54H96.7597ZM107.571 35.6C107.437 35.6267 107.291 35.6533 107.131 35.68C106.984 35.7067 106.804 35.7333 106.591 35.76C106.377 35.7867 106.124 35.82 105.831 35.86C105.551 35.8867 105.224 35.92 104.851 35.96C104.277 36.0267 103.764 36.14 103.311 36.3C102.857 36.4467 102.464 36.6667 102.131 36.96C101.797 37.24 101.524 37.6 101.311 38.04C101.097 38.48 100.944 39.0133 100.851 39.64C101.264 39.3733 101.711 39.1667 102.191 39.02C102.684 38.8733 103.164 38.8 103.631 38.8C105.017 38.8 106.117 39.24 106.931 40.12C107.744 41 108.151 42.2733 108.151 43.94C108.151 44.74 108.037 45.4667 107.811 46.12C107.584 46.7733 107.257 47.3333 106.831 47.8C106.404 48.2667 105.891 48.6333 105.291 48.9C104.691 49.1533 104.011 49.28 103.251 49.28C102.304 49.28 101.511 49.1267 100.871 48.82C100.231 48.5 99.7174 48.0533 99.3308 47.48C98.9441 46.8933 98.6641 46.1933 98.4908 45.38C98.3174 44.5667 98.2308 43.66 98.2308 42.66C98.2308 41.3533 98.3374 40.2 98.5508 39.2C98.7774 38.1867 99.1374 37.32 99.6308 36.6C100.137 35.88 100.791 35.3 101.591 34.86C102.404 34.4067 103.391 34.0933 104.551 33.92C105.151 33.8267 105.651 33.7533 106.051 33.7C106.464 33.6467 106.877 33.5733 107.291 33.48L107.571 35.6ZM100.771 41.76C100.744 41.9333 100.731 42.1467 100.731 42.4C100.731 42.64 100.731 42.8667 100.731 43.08C100.731 43.68 100.771 44.2333 100.851 44.74C100.931 45.2467 101.071 45.68 101.271 46.04C101.471 46.4 101.731 46.68 102.051 46.88C102.371 47.08 102.771 47.18 103.251 47.18C103.664 47.18 104.024 47.1 104.331 46.94C104.637 46.78 104.891 46.5533 105.091 46.26C105.291 45.9667 105.437 45.6267 105.531 45.24C105.637 44.84 105.691 44.4067 105.691 43.94C105.691 43.54 105.644 43.16 105.551 42.8C105.471 42.4267 105.331 42.1 105.131 41.82C104.944 41.5267 104.691 41.2933 104.371 41.12C104.051 40.9467 103.657 40.86 103.191 40.86C102.737 40.86 102.284 40.94 101.831 41.1C101.391 41.26 101.037 41.48 100.771 41.76ZM114.341 47.3C115.088 47.3 115.654 47.26 116.041 47.18V44.5C115.908 44.46 115.714 44.42 115.461 44.38C115.208 44.34 114.928 44.32 114.621 44.32C114.354 44.32 114.081 44.34 113.801 44.38C113.534 44.42 113.288 44.4933 113.061 44.6C112.848 44.7067 112.674 44.86 112.541 45.06C112.408 45.2467 112.341 45.4867 112.341 45.78C112.341 46.3533 112.521 46.7533 112.881 46.98C113.241 47.1933 113.728 47.3 114.341 47.3ZM114.141 38.28C114.941 38.28 115.614 38.38 116.161 38.58C116.708 38.78 117.141 39.06 117.461 39.42C117.794 39.78 118.028 40.22 118.161 40.74C118.308 41.2467 118.381 41.8067 118.381 42.42V48.76C118.008 48.84 117.441 48.9333 116.681 49.04C115.934 49.16 115.088 49.22 114.141 49.22C113.514 49.22 112.941 49.16 112.421 49.04C111.901 48.92 111.454 48.7267 111.081 48.46C110.721 48.1933 110.434 47.8467 110.221 47.42C110.021 46.9933 109.921 46.4667 109.921 45.84C109.921 45.24 110.034 44.7333 110.261 44.32C110.501 43.9067 110.821 43.5733 111.221 43.32C111.621 43.0533 112.081 42.8667 112.601 42.76C113.134 42.64 113.688 42.58 114.261 42.58C114.528 42.58 114.808 42.6 115.101 42.64C115.394 42.6667 115.708 42.72 116.041 42.8V42.4C116.041 42.12 116.008 41.8533 115.941 41.6C115.874 41.3467 115.754 41.1267 115.581 40.94C115.421 40.74 115.201 40.5867 114.921 40.48C114.654 40.3733 114.314 40.32 113.901 40.32C113.341 40.32 112.828 40.36 112.361 40.44C111.894 40.52 111.514 40.6133 111.221 40.72L110.921 38.76C111.228 38.6533 111.674 38.5467 112.261 38.44C112.848 38.3333 113.474 38.28 114.141 38.28ZM130.125 49H127.705V44.62H123.765V49H121.345V38.54H123.765V42.62H127.705V38.54H130.125V49ZM142.66 43.76C142.66 44.5867 142.54 45.34 142.3 46.02C142.06 46.7 141.72 47.28 141.28 47.76C140.84 48.24 140.307 48.6133 139.68 48.88C139.067 49.1467 138.387 49.28 137.64 49.28C136.893 49.28 136.213 49.1467 135.6 48.88C134.987 48.6133 134.46 48.24 134.02 47.76C133.58 47.28 133.233 46.7 132.98 46.02C132.74 45.34 132.62 44.5867 132.62 43.76C132.62 42.9333 132.74 42.1867 132.98 41.52C133.233 40.84 133.58 40.26 134.02 39.78C134.473 39.3 135.007 38.9333 135.62 38.68C136.233 38.4133 136.907 38.28 137.64 38.28C138.373 38.28 139.047 38.4133 139.66 38.68C140.287 38.9333 140.82 39.3 141.26 39.78C141.7 40.26 142.04 40.84 142.28 41.52C142.533 42.1867 142.66 42.9333 142.66 43.76ZM140.18 43.76C140.18 42.72 139.953 41.9 139.5 41.3C139.06 40.6867 138.44 40.38 137.64 40.38C136.84 40.38 136.213 40.6867 135.76 41.3C135.32 41.9 135.1 42.72 135.1 43.76C135.1 44.8133 135.32 45.6467 135.76 46.26C136.213 46.8733 136.84 47.18 137.64 47.18C138.44 47.18 139.06 46.8733 139.5 46.26C139.953 45.6467 140.18 44.8133 140.18 43.76ZM147.573 42.74C147.88 42.4333 148.213 42.0933 148.573 41.72C148.933 41.3333 149.287 40.9467 149.633 40.56C149.993 40.1733 150.333 39.8067 150.653 39.46C150.973 39.1 151.24 38.7933 151.453 38.54H154.293C154 38.8867 153.66 39.2667 153.273 39.68C152.9 40.0933 152.507 40.52 152.093 40.96C151.693 41.3867 151.293 41.8067 150.893 42.22C150.507 42.62 150.153 42.98 149.833 43.3C150.247 43.6467 150.673 44.0533 151.113 44.52C151.567 44.9733 152.007 45.46 152.433 45.98C152.873 46.4867 153.28 47.0067 153.653 47.54C154.027 48.06 154.34 48.5467 154.593 49H151.793C151.54 48.6 151.24 48.18 150.893 47.74C150.56 47.3 150.207 46.8733 149.833 46.46C149.46 46.0333 149.08 45.6333 148.693 45.26C148.307 44.8867 147.933 44.5667 147.573 44.3V49H145.153V38.54H147.573V42.74Z" fill="#fff"/><circle cx="30" cy="30" r="29" fill="#2D2E2E" stroke="#6D6D6D" stroke-width="2"/><path fill-rule="evenodd" clip-rule="evenodd" d="M39.8286 15.0579C38.3909 15.3001 37.0756 16.3525 36.5113 17.7123C35.9169 19.1445 36.0704 20.43 36.9397 21.2994C37.9484 22.3083 39.5182 22.3394 40.5779 21.3715C41.0612 20.9301 41.4245 20.1162 41.4245 19.475C41.4245 19.0058 41.0023 18.5719 40.5456 18.5719C40.0998 18.5719 39.6667 19.005 39.6667 19.4509C39.6667 19.8988 39.2336 20.3299 38.7835 20.3299C38.3415 20.3299 37.909 19.8833 37.909 19.4268C37.909 18.7906 38.1898 18.1286 38.6834 17.6008C39.6946 16.5196 41.297 16.4873 42.3951 17.526C42.8842 17.9886 43.2408 18.7902 43.2408 19.4268C43.2408 19.896 43.663 20.3299 44.1196 20.3299C44.418 20.3299 44.7477 20.1229 44.8882 19.8476C44.9979 19.6326 45.0091 19.5414 44.9766 19.1306C44.8661 17.7343 44.1181 16.4869 42.9279 15.7139C42.0087 15.117 40.8874 14.8796 39.8286 15.0579ZM24.1109 18.6552C23.6175 18.7787 23.2482 18.9895 22.8762 19.3601C21.8366 20.3961 21.8373 22.0166 22.8779 23.0573C23.5386 23.7182 24.5617 24.0217 25.1377 23.7279C25.3977 23.5952 25.6049 23.2576 25.6049 22.9668C25.6049 22.521 25.1719 22.0879 24.7261 22.0879C24.2803 22.0879 23.8472 21.6548 23.8472 21.2089C23.8472 20.9181 24.0545 20.5805 24.3144 20.4479C24.8904 20.154 25.9135 20.4575 26.5743 21.1184C26.988 21.5322 27.2167 21.976 27.3167 22.5598C27.449 23.3309 27.182 24.1874 26.6232 24.7848C26.193 25.2449 25.3722 25.6038 24.7502 25.6038C24.4372 25.6038 24.1017 25.8035 23.9652 26.0711C23.638 26.7124 24.0799 27.3618 24.8434 27.3618C25.8526 27.3618 27.0511 26.8407 27.8241 26.066C29.7995 24.086 29.4549 20.8237 27.1084 19.2901C26.1831 18.6854 24.9954 18.4339 24.1109 18.6552ZM31.3328 18.6928C31.0855 18.8234 30.8781 19.1691 30.8781 19.4509C30.8781 19.8968 31.3112 20.3299 31.757 20.3299C32.2028 20.3299 32.6358 19.8968 32.6358 19.4509C32.6358 19.1601 32.4286 18.8226 32.1686 18.6899C31.88 18.5426 31.6155 18.5435 31.3328 18.6928ZM19.0288 25.7246C18.7814 25.8552 18.574 26.201 18.574 26.4828C18.574 26.9286 19.0071 27.3618 19.4529 27.3618C19.8987 27.3618 20.3318 26.9286 20.3318 26.4828C20.3318 26.192 20.1245 25.8544 19.8646 25.7217C19.5759 25.5745 19.3115 25.5754 19.0288 25.7246ZM32.0499 25.6685C31.8728 25.7378 29.2061 28.3801 29.0872 28.604C28.8028 29.1398 29.2418 29.8221 29.8713 29.8227C30.2009 29.823 30.3073 29.7636 30.7466 29.3342L31.1131 28.976L31.7284 29.5893L32.3438 30.2026L28.8862 33.6605C25.9988 36.5482 25.3828 37.137 25.1506 37.2309C24.9977 37.2927 24.2701 37.6175 23.5339 37.9527C22.7976 38.2879 22.1805 38.5476 22.1627 38.5297C22.1059 38.4729 22.3302 37.7463 22.5394 37.31C22.7598 36.8498 23.1579 36.2647 23.4071 36.0344C23.6163 35.8411 23.7886 35.497 23.7886 35.2726C23.7886 34.9818 23.5814 34.6442 23.3214 34.5116C23.0969 34.397 22.9828 34.3936 19.3811 34.3936C15.8817 34.3936 15.6604 34.3998 15.4678 34.5023C15.2244 34.6318 15.0023 34.9924 15.0009 35.2603C14.9998 35.4952 15.1677 35.8369 15.3815 36.0344C15.6085 36.2442 16.0108 36.8242 16.223 37.2476C16.4832 37.767 16.6962 38.5534 16.7387 39.1517L16.7752 39.6675H16.2369C15.5747 39.6675 15.2972 39.7834 15.1179 40.1348C15.0067 40.3529 15 40.4773 15 42.3338C15 44.1902 15.0067 44.3146 15.1179 44.5327C15.1939 44.6816 15.3183 44.8061 15.4672 44.882C15.6971 44.9993 15.7822 45 29.9993 45C44.2163 45 44.3014 44.9993 44.5313 44.882C44.6802 44.8061 44.8046 44.6816 44.8806 44.5327C44.9918 44.3146 44.9985 44.1902 44.9985 42.3338C44.9985 39.5313 45.1361 39.6971 42.7721 39.6501C40.3452 39.6019 39.6974 39.4287 36.5321 37.9819C35.3432 37.4385 33.8229 36.7962 33.7256 36.7962C33.7105 36.7962 33.6253 36.7684 33.5363 36.7346C33.3764 36.6739 33.4351 36.6123 38.1848 31.8563C40.8305 29.207 43.0373 26.9551 43.0887 26.8519C43.4456 26.136 42.6498 25.3402 41.9342 25.6974C41.8311 25.7489 41.0286 26.5064 40.151 27.3809L38.5553 28.9707L37.5144 27.9366C36.0395 26.4713 36.0981 26.471 34.5963 27.9549L33.5981 28.9415L32.9865 28.3278L32.3749 27.714L32.7331 27.3475C33.1637 26.9068 33.2217 26.8021 33.2217 26.466C33.2217 25.8698 32.6062 25.4509 32.0499 25.6685ZM36.7232 29.6037L37.3223 30.205L34.3344 33.1929L31.3464 36.1809H30.1165H28.8866L32.4748 32.5917C34.4483 30.6177 36.0768 29.0025 36.0936 29.0025C36.1103 29.0025 36.3937 29.2731 36.7232 29.6037ZM20.917 36.635C20.6245 37.2505 20.422 37.9601 20.33 38.6908C20.2456 39.3613 20.3122 39.3062 19.3656 39.4889C18.4882 39.6582 18.5155 39.6633 18.5151 39.3306C18.5141 38.5393 18.2093 37.2936 17.834 36.5471L17.6351 36.1516H19.3909H21.1466L20.917 36.635ZM31.7158 38.0812C32.8775 38.3159 33.649 38.5988 35.7704 39.5683C38.9831 41.0364 40.391 41.4235 42.523 41.425L43.2408 41.4255V42.3338V43.242H29.9993H16.7577V42.3338V41.4255H17.4631C19.0893 41.4255 20.5321 41.1325 22.1853 40.4667C22.5354 40.3256 23.5206 39.8931 24.3745 39.5054C26.634 38.4797 27.5278 38.1718 28.7607 37.9946C29.5216 37.8851 30.9528 37.9271 31.7158 38.0812Z" fill="#F8F8F8"/></svg>