<svg width="35" height="25" viewBox="0 0 35 25" fill="none" xmlns="http://www.w3.org/2000/svg"><path fill-rule="evenodd" clip-rule="evenodd" d="M9.96053 0.0486875C9.2255 0.270361 8.69318 1.08383 8.77359 1.86273C8.83601 2.46718 9.19059 2.98643 9.74604 3.28674L10.0198 3.4347H21.8939H33.7681L34.0419 3.28674C34.6709 2.94666 34.994 2.41825 34.9975 1.72373C35.0012 1.02367 34.6743 0.470613 34.0579 0.133688C33.8489 0.0195323 33.1756 0.0121412 21.9966 0.0011225C15.4846 -0.00524232 10.0684 0.0161106 9.96053 0.0486875ZM1.36228 10.5244C0.958761 10.6038 0.559214 10.8894 0.288265 11.2921C-0.0960882 11.8634 -0.0960882 12.5948 0.288265 13.1661C0.574134 13.591 0.964441 13.8549 1.43366 13.9408C1.68497 13.9868 7.1969 14.0041 17.7563 13.9922C32.1948 13.976 33.7222 13.964 33.9392 13.8649C34.2934 13.7031 34.6026 13.4185 34.8132 13.0603C34.9718 12.7904 35 12.6649 35 12.2291C35 11.7933 34.9718 11.6678 34.8132 11.3979C34.6026 11.0397 34.2934 10.7551 33.9392 10.5933C33.7221 10.4942 32.1995 10.483 17.685 10.4738C8.62009 10.4682 1.53659 10.4901 1.36228 10.5244ZM16.9585 21.0837C15.4405 21.6262 15.3594 23.6718 16.8295 24.3372C17.1337 24.475 17.2358 24.4767 25.355 24.4782C34.509 24.4799 33.9553 24.5083 34.4697 24.0091C34.8652 23.6253 35.0005 23.2985 34.9973 22.7345C34.9953 22.3793 34.9563 22.1824 34.8462 21.9729C34.6401 21.5805 34.1401 21.1585 33.7715 21.0657C33.3011 20.9473 17.2923 20.9644 16.9585 21.0837Z" fill="#fff"/></svg>