<svg width="59" height="42" viewBox="0 0 59 42" fill="none" xmlns="http://www.w3.org/2000/svg"><path d="M57.525 6.375C56.7875 3.75 54.9438 1.875 52.3625 1.125C47.9375 6.70552e-07 29.1312 0 29.1312 0C29.1312 0 10.6938 6.70552e-07 5.90002 1.125C3.31877 1.875 1.47499 3.75 0.737489 6.375C-1.12643e-05 11.25 0 21 0 21C0 21 1.12094e-05 30.75 1.10626 35.625C1.84376 38.25 3.68749 40.125 6.26874 40.875C10.6937 42 29.5 42 29.5 42C29.5 42 47.9375 42 52.7312 40.875C55.3125 40.125 57.1563 38.25 57.8938 35.625C59 30.75 59 21 59 21C59 21 59 11.25 57.525 6.375ZM23.6 30V12L39.0875 21L23.6 30Z" fill="#fff"/></svg>