<svg width="426" height="16" viewBox="0 0 426 16" fill="none" xmlns="http://www.w3.org/2000/svg"><circle cx="8" cy="8" r="8" fill="#0E9540"/><circle cx="8" cy="8" r="7.5" stroke="#000" stroke-opacity=".08"/><circle cx="90" cy="8" r="8" fill="#0E9540"/><circle cx="90" cy="8" r="7.5" stroke="#000" stroke-opacity=".08"/><circle cx="172" cy="8" r="8" fill="#D9D9D9"/><circle cx="172" cy="8" r="7.5" stroke="#000" stroke-opacity=".08"/><circle cx="254" cy="8" r="8" fill="#D9D9D9"/><circle cx="254" cy="8" r="7.5" stroke="#000" stroke-opacity=".08"/><circle cx="336" cy="8" r="8" fill="#D9D9D9"/><circle cx="336" cy="8" r="7.5" stroke="#000" stroke-opacity=".08"/><circle cx="418" cy="8" r="8" fill="#D9D9D9"/><circle cx="418" cy="8" r="7.5" stroke="#000" stroke-opacity=".08"/><path fill="#0E9540" d="M15 6H83V9H15z"/><path stroke="#000" stroke-opacity=".08" d="M15.5 6.5H82.5V8.5H15.5z"/><path fill="#0E9540" d="M97 6H165V9H97z"/><path stroke="#000" stroke-opacity=".08" d="M97.5 6.5H164.5V8.5H97.5z"/><path fill="#D9D9D9" d="M179 6H247V9H179z"/><path stroke="#000" stroke-opacity=".08" d="M179.5 6.5H246.5V8.5H179.5z"/><path fill="#D9D9D9" d="M261 6H329V9H261z"/><path stroke="#000" stroke-opacity=".08" d="M261.5 6.5H328.5V8.5H261.5z"/><path fill="#D9D9D9" d="M343 6H411V9H343z"/><path stroke="#000" stroke-opacity=".08" d="M343.5 6.5H410.5V8.5H343.5z"/></svg>