<svg width="50" height="50" viewBox="0 0 50 50" fill="none" xmlns="http://www.w3.org/2000/svg"><path fill-rule="evenodd" clip-rule="evenodd" d="M35.2539 5.95703V11.9141H17.627H0V30.957V50H25H50V30.957V11.9141H47.0215H44.043V5.95703V0H39.6484H35.2539V5.95703ZM41.1133 4.39453V5.85938H39.6484H38.1836V4.39453V2.92969H39.6484H41.1133V4.39453ZM41.1133 18.212V27.635L40.4068 29.0519C40.0183 29.8312 39.6771 30.4688 39.6484 30.4688C39.6198 30.4688 39.2786 29.8312 38.89 29.0519L38.1836 27.635V18.212V8.78906H39.6484H41.1133V18.212ZM11.7188 30.957V47.0703H7.32422H2.92969V30.957V14.8438H7.32422H11.7188V30.957ZM35.2539 21.6318V28.4198L36.2305 30.3711C36.7676 31.4443 37.207 32.3447 37.207 32.3721C37.207 32.3995 36.3522 32.4219 35.3075 32.4219C34.2608 32.4219 33.1757 32.4716 32.8905 32.5326C31.2085 32.8926 29.8552 34.2451 29.5034 35.9179C29.4436 36.2025 29.3945 37.2479 29.3945 38.2411C29.3945 39.8581 29.374 40.0871 29.1979 40.4322C28.9757 40.8679 28.4137 41.2109 27.9225 41.2109C27.4683 41.2109 26.8649 40.8312 26.6501 40.41C26.4721 40.0611 26.4648 39.6886 26.4648 30.9169C26.4648 24.4799 26.4321 21.6343 26.3541 21.2694C26.0839 20.0069 25.1154 18.753 24.0075 18.2314C21.414 17.0104 18.3677 18.4976 17.7847 21.2694C17.7088 21.63 17.6758 24.7333 17.6758 31.4989V41.2109H19.1406H20.6055V31.5391C20.6055 22.2354 20.6125 21.8534 20.7907 21.5041C21.0056 21.0829 21.6089 20.7031 22.0631 20.7031C22.5543 20.7031 23.1163 21.0462 23.3386 21.4818C23.5314 21.86 23.5352 22.0396 23.5352 30.9972C23.5352 37.4342 23.5679 40.2798 23.6459 40.6446C23.8265 41.4881 24.2146 42.192 24.8492 42.8266C26.9281 44.9056 30.4224 44.3987 31.7631 41.8237C32.2421 40.9036 32.3242 40.391 32.3242 38.3214C32.3242 36.2387 32.403 35.9534 33.0843 35.5705C33.4694 35.354 33.5173 35.3516 37.2936 35.3516H41.1133V34.8139C41.1133 34.316 41.222 34.0588 42.5781 31.3477L44.043 28.4192V21.6314V14.8438H45.5566H47.0703V30.957V47.0703H30.8594H14.6484V30.957V14.8438H24.9512H35.2539V21.6318ZM5.85938 20.7031V23.6328H7.32422H8.78906V20.7031V17.7734H7.32422H5.85938V20.7031ZM6.24941 29.9322L5.22695 30.9582L6.27559 32.0068L7.32422 33.0555L8.37285 32.0068L9.42148 30.9582L8.39902 29.9322C7.83662 29.368 7.35303 28.9062 7.32422 28.9062C7.29541 28.9062 6.81182 29.368 6.24941 29.9322ZM5.85938 41.2109V44.1406H7.32422H8.78906V41.2109V38.2812H7.32422H5.85938V41.2109Z" fill="#000"/></svg>