<svg width="50" height="61" viewBox="0 0 50 61" fill="none" xmlns="http://www.w3.org/2000/svg"><path fill-rule="evenodd" clip-rule="evenodd" d="M11.6935 0.195714C10.9688 0.552967 10.7799 0.97641 10.7343 2.34507L10.6938 3.56135L5.91295 3.59504C1.18449 3.62825 1.12806 3.63147 0.759852 3.89408C-0.0632238 4.48121 0.00117927 2.2265 0.00117927 30.4732C0.00117927 58.7199 -0.0632238 56.4652 0.759852 57.0523L1.1321 57.3178L19.4986 57.3487C35.3311 57.3753 37.9109 57.3558 38.1979 57.2073L38.5309 57.0352L39.948 58.4561C41.5801 60.0924 42.4205 60.6161 43.7924 60.8513C46.995 61.4005 50 58.8543 50 55.5917C50 54.7517 49.7193 53.6639 49.3243 52.9727C49.1475 52.6634 46.9611 50.373 44.152 47.5542L39.286 42.6715V23.8722C39.286 5.31583 39.2829 5.06643 39.0479 4.58097C38.8961 4.26752 38.6419 3.99479 38.3472 3.82908C37.8935 3.57409 37.7948 3.56909 33.2283 3.56909H28.5719V2.5353C28.5719 1.25402 28.3205 0.644037 27.6331 0.257736C27.1709 -0.00201956 27.1643 -0.00225766 19.6274 0.000480371C12.9227 0.00286127 12.0408 0.0245274 11.6935 0.195714ZM25.0006 4.60287C25.0006 5.88415 24.7492 6.49414 24.0618 6.88044C23.6119 7.13329 23.4897 7.14043 19.6454 7.14043C15.2731 7.14043 15.1383 7.12007 14.6115 6.38176C14.3871 6.067 14.3398 5.82094 14.3055 4.7893L14.2649 3.56909H19.6327H25.0006V4.60287ZM11.3025 7.7703C11.8872 9.02253 13.4594 10.2545 14.8951 10.5855C15.6302 10.755 23.5062 10.7486 24.3102 10.5778C25.7947 10.2626 27.3686 9.05039 27.9673 7.76113L28.2555 7.14043H31.9851H35.7146V23.116V39.0916L32.173 35.5817C29.8313 33.2608 28.3186 31.8588 27.708 31.4433C25.7732 30.1267 23.3831 29.2232 21.0248 28.9171C19.2448 28.686 18.4725 28.9163 18.0511 29.8043C17.521 30.9215 18.1911 34.3842 19.4081 36.8162C20.4294 38.8571 20.693 39.1532 28.1456 46.6335L35.2915 53.806H19.432H3.57252V30.4732V7.14043L7.29267 7.14531L11.0128 7.15019L11.3025 7.7703ZM8.12218 14.4811C7.50291 14.7863 7.20339 15.3039 7.20339 16.0688C7.20339 16.5554 7.2716 16.8191 7.46886 17.0958C8.0398 17.896 7.3722 17.8545 19.6454 17.8545H30.7419L31.2045 17.5945C31.6919 17.3205 32.1433 16.5869 32.1433 16.0688C32.1433 15.5507 31.6919 14.817 31.2045 14.5431L30.7419 14.2831L19.6274 14.2859C9.63274 14.2882 8.47348 14.308 8.12218 14.4811ZM8.12218 21.6238C7.50291 21.929 7.20339 22.4466 7.20339 23.2115C7.20339 23.6981 7.2716 23.9618 7.46886 24.2385C8.0398 25.0387 7.3722 24.9972 19.6454 24.9972H30.7419L31.2045 24.7372C31.6919 24.4632 32.1433 23.7296 32.1433 23.2115C32.1433 22.6934 31.6919 21.9597 31.2045 21.6858L30.7419 21.4258L19.6274 21.4285C9.63274 21.4309 8.47348 21.4507 8.12218 21.6238ZM23.9063 33.3961C24.7843 33.801 26.4291 34.8299 26.4291 34.9742C26.4291 35.082 24.133 37.3778 24.0251 37.3778C23.8882 37.3778 23.0178 36.0443 22.5723 35.1521C22.2593 34.5254 21.6673 32.9045 21.6673 32.6744C21.6673 32.5698 23.1535 33.0489 23.9063 33.3961ZM46.2506 54.8359C46.9691 56.3494 45.3423 57.9316 43.8604 57.1603C43.5811 57.015 39.9911 53.509 34.9408 48.4497L26.4886 39.9823L27.7981 38.7454L29.1076 37.5086L37.5901 45.9846C42.2554 50.6465 46.1526 54.6296 46.2506 54.8359ZM8.12218 43.2899C7.50291 43.5952 7.20339 44.1128 7.20339 44.8776C7.20339 45.3643 7.2716 45.628 7.46886 45.9046C7.99563 46.643 8.13039 46.6633 12.5027 46.6633C16.347 46.6633 16.4692 46.6562 16.9191 46.4033C17.4065 46.1294 17.8579 45.3957 17.8579 44.8776C17.8579 44.31 17.3958 43.5962 16.8608 43.3372C16.3803 43.1046 16.1521 43.0921 12.4335 43.0947C9.06597 43.097 8.45777 43.1246 8.12218 43.2899Z" fill="#000"/></svg>