<svg width="50" height="51" viewBox="0 0 50 51" fill="none" xmlns="http://www.w3.org/2000/svg"><path fill-rule="evenodd" clip-rule="evenodd" d="M24.2729 0.143113C23.4743 0.498034 23.2103 1.07186 23.2103 2.45329C23.2103 3.00296 23.1845 3.45273 23.1529 3.45273C23.1214 3.45273 22.7314 3.35184 22.2864 3.22846C18.4391 2.16235 13.8104 3.17276 10.3649 5.83092C9.58065 6.43595 9.34094 6.8298 9.34049 7.51492C9.33993 8.21604 9.43669 8.3873 10.3745 9.34311L11.1602 10.1441L10.6696 10.3939C8.42785 11.5352 6.22159 13.8205 4.99866 16.2677C4.16309 17.9399 3.39676 20.9191 3.56779 21.8305C3.66242 22.3353 4.12192 22.8968 4.60526 23.0988C4.82226 23.1894 5.38054 23.2514 5.98076 23.2514C6.53647 23.2514 6.98993 23.2892 6.98848 23.3353C6.98714 23.3814 6.89586 23.7715 6.78579 24.2022L6.58557 24.9852L3.83199 25.0411C0.808501 25.1025 0.800112 25.1044 0.230649 25.8672C0.00436245 26.1702 0 26.2903 0 32.1999C0 38.1096 0.00436245 38.2297 0.230649 38.5327C0.730761 39.2026 0.979754 39.2998 2.30089 39.3407L3.52349 39.3786V42.9382V46.4978L2.30089 46.5357C1.27774 46.5674 1.02785 46.6111 0.769799 46.8042C0.182998 47.2428 0 47.6002 0 48.3073C0 49.0147 0.183221 49.3722 0.770134 49.8105C1.06935 50.0339 1.21119 50.0411 5.3132 50.0411C9.41521 50.0411 9.55705 50.0339 9.85626 49.8105C10.4432 49.3722 10.6264 49.0147 10.6264 48.3073C10.6264 47.6002 10.4434 47.2428 9.8566 46.8042C9.59855 46.6111 9.34866 46.5674 8.3255 46.5357L7.10291 46.4978V42.9283V39.3588H25H42.8971V42.9283V46.4978L41.6745 46.5357C40.6513 46.5674 40.4015 46.6111 40.1434 46.8042C39.5566 47.2428 39.3736 47.6002 39.3736 48.3073C39.3736 49.0147 39.5568 49.3722 40.1437 49.8105C40.443 50.0339 40.5848 50.0411 44.6868 50.0411C48.7888 50.0411 48.9306 50.0339 49.2299 49.8105C49.8168 49.3722 50 49.0147 50 48.3073C50 47.6002 49.817 47.2428 49.2302 46.8042C48.9721 46.6111 48.7223 46.5674 47.6991 46.5357L46.4765 46.4978V42.9382V39.3786L47.6991 39.3407C49.0202 39.2998 49.2692 39.2026 49.7694 38.5327C49.9956 38.2297 50 38.1096 50 32.1999C50 26.2903 49.9956 26.1702 49.7694 25.8672C49.2395 25.1575 49.0641 25.1002 47.2989 25.0607C45.8339 25.0279 45.6833 25.0061 45.7512 24.837C46.0289 24.1449 46.3877 22.3992 46.4029 21.6668C46.4176 20.9578 46.3806 20.7556 46.1899 20.4993C45.6965 19.8358 45.4356 19.7309 44.1756 19.6898C43.5339 19.6687 43.0089 19.6304 43.0089 19.6044C43.0089 19.5785 43.1098 19.1931 43.2332 18.748C44.2902 14.9341 43.3219 10.4109 40.703 6.92689C40.0473 6.05452 39.654 5.80273 38.9468 5.80217C38.2456 5.80161 38.0745 5.89837 37.1182 6.8364L36.317 7.62242L36.0377 7.07566C34.9188 4.88562 32.6122 2.66794 30.2013 1.46437C29.1777 0.953292 27.6368 0.437632 26.4223 0.199712C25.1459 -0.0503997 24.7328 -0.0613617 24.2729 0.143113ZM28.6988 4.68618C31.1253 5.92018 32.8736 8.03886 33.7117 10.7609C33.8413 11.1814 34.031 11.6675 34.1336 11.841C34.5139 12.4848 35.498 12.7929 36.2623 12.5074C36.4355 12.4427 37.0412 11.9294 37.6083 11.3666C38.1754 10.8039 38.6601 10.366 38.6855 10.3936C38.851 10.574 39.3368 11.706 39.5803 12.4782C40.4219 15.1485 40.1251 17.8848 38.7275 20.3384C38.2884 21.1094 38.2604 21.7877 38.6423 22.4056C39.0553 23.0738 39.567 23.246 41.1474 23.2489L42.4739 23.2514L42.3989 23.559C42.3575 23.7282 42.2039 24.1309 42.0574 24.4539L41.7909 25.0411H37.4889H33.187L33.3933 24.4985C34.5945 21.337 33.7626 17.6033 31.3105 15.1512C29.5653 13.4061 27.528 12.574 25 12.574C23.0517 12.574 21.6756 12.9682 20.1526 13.9625C16.6554 16.2453 15.1596 20.69 16.6067 24.4985L16.813 25.0411H13.5318H10.2506L10.3418 24.7335C10.5187 24.1381 10.9035 23.2525 11.26 22.621C11.7095 21.8243 11.7435 21.142 11.3642 20.5282C10.949 19.8564 10.6046 19.7355 8.92427 19.672L7.44597 19.616L7.81499 18.7016C8.5226 16.9483 9.60805 15.4805 10.9556 14.4547C11.9728 13.6805 12.7535 13.2728 14.0436 12.8422C14.6251 12.6481 15.2343 12.4112 15.3978 12.3156C16.0232 11.9497 16.3277 10.9546 16.0457 10.1994C15.981 10.0262 15.4677 9.42052 14.9049 8.8534C14.3422 8.28629 13.9044 7.80161 13.9319 7.77622C14.1123 7.61067 15.2443 7.12488 16.0166 6.88137C18.6809 6.04166 21.2527 6.309 23.7629 7.68651C24.6526 8.17477 25.3046 8.21448 25.944 7.8194C26.6172 7.40329 26.7843 6.89826 26.7872 5.27141L26.7897 3.90206L27.4963 4.16806C27.8849 4.31437 28.4261 4.54748 28.6988 4.68618ZM26.2648 16.2594C27.7776 16.6534 29.0808 17.6856 29.7472 19.0178C30.6613 20.8451 30.547 22.7481 29.4211 24.4438L29.0246 25.0411H25H20.9754L20.5789 24.4438C20.0302 23.6175 19.7323 22.7754 19.6624 21.8532C19.3912 18.2732 22.8254 15.3636 26.2648 16.2594ZM46.4765 32.1999V35.7794H25H3.52349V32.1999V28.6205H25H46.4765V32.1999Z" fill="#000"/></svg>