<svg width="50" height="34" viewBox="0 0 50 34" fill="none" xmlns="http://www.w3.org/2000/svg"><path fill-rule="evenodd" clip-rule="evenodd" d="M5.27858 0.209017C4.65886 0.605748 4.62593 0.76102 4.59202 3.44452L4.56134 5.86302L3.81029 5.86341C3.23825 5.8637 2.98468 5.90914 2.74683 6.05415C1.85341 6.59892 1.81198 7.80602 2.66436 8.45613C2.96963 8.68899 3.13897 8.73658 3.79846 8.77479L4.57375 8.81964V10.2728V11.726H2.78045C1.07871 11.726 0.970143 11.7374 0.655104 11.9479C-0.237247 12.5439 -0.214577 13.7219 0.702399 14.4072C0.947571 14.5904 1.13499 14.6116 2.77038 14.6408L4.56867 14.673L4.59564 21.5787L4.62261 28.4845L4.8369 28.8265C5.21448 29.429 5.31611 29.4568 7.34481 29.5105L9.18746 29.5594L9.42315 30.1457C10.086 31.7942 11.7276 33.2061 13.5109 33.6613C14.257 33.8519 15.7022 33.8522 16.4503 33.662C18.1656 33.226 19.6413 32.0304 20.3984 30.4633L20.8115 29.6082H27.7739H34.7363L35.1574 30.4633C35.9273 32.0265 37.4164 33.2308 39.1128 33.662C39.859 33.8517 41.3041 33.852 42.0521 33.6626C43.8612 33.2047 45.6198 31.6472 46.2057 29.9839L46.3315 29.6266L47.61 29.593C49.0105 29.5562 49.3441 29.4474 49.7576 28.8927C49.96 28.6213 49.9638 28.5304 49.9929 23.2251C50.0136 19.4489 49.9897 17.7208 49.913 17.4578C49.825 17.1564 48.926 16.1779 45.3599 12.5021C41.6996 8.72925 40.8526 7.90433 40.554 7.82136C40.3456 7.76352 39.0391 7.72052 37.4799 7.72023L34.7683 7.71964L34.7681 4.42169C34.768 0.741867 34.7554 0.663498 34.0942 0.221817L33.7622 0L19.681 0.00166102L5.59978 0.00332204L5.27858 0.209017ZM31.8127 14.7797L31.7879 26.6279H26.3705H20.953L20.7915 26.0842C20.2137 24.1379 18.4726 22.447 16.53 21.9458C15.6452 21.7175 14.1406 21.7405 13.3052 21.9949C11.3575 22.5884 9.74503 24.1744 9.21609 26.0171L9.05486 26.579H8.28006H7.50526V20.6224V14.6657L11.5361 14.6372C16.0332 14.6054 15.9712 14.6146 16.3997 13.9212C16.5752 13.6372 16.6077 13.469 16.5715 13.0323C16.5333 12.5717 16.4749 12.4418 16.1675 12.1343L15.8082 11.7749L11.6811 11.726L7.55412 11.6772L7.52705 10.2396L7.50008 8.80186L12.0709 8.77381C17.1701 8.74244 17.0411 8.75955 17.4745 8.05813C17.8598 7.4348 17.645 6.45538 17.0327 6.0434C16.8784 5.93963 15.8593 5.90162 12.1957 5.86302L7.55412 5.81416L7.52705 4.37283L7.50008 2.93151H19.6688H31.8376L31.8127 14.7797ZM41.3986 12.6299C42.4522 13.7182 43.7079 15.0154 44.1894 15.5126L45.0645 16.4165H39.9164H34.7683V13.5338V10.6511H37.1256H39.483L41.3986 12.6299ZM47.0806 23.0188V26.6897L46.8172 26.6588C46.5833 26.6313 46.5233 26.5404 46.2803 25.8461C45.603 23.9101 44.0079 22.4361 42.0521 21.9389C41.314 21.7513 39.7686 21.7498 39.0678 21.936C37.4175 22.3746 35.9302 23.5836 35.1753 25.1002L34.7683 25.9177V22.6328V19.348H40.9245H47.0806V23.0188ZM16.4775 25.0639C18.3242 26.07 18.6532 28.5629 17.1343 30.0391C16.3296 30.8211 15.0187 31.0951 13.8987 30.7153C13.2116 30.4822 12.2867 29.5436 12.0546 28.8435C11.8196 28.1353 11.8753 27.0857 12.1811 26.4589C12.4871 25.8318 13.1949 25.1575 13.7983 24.9185C14.5603 24.6167 15.7779 24.6827 16.4775 25.0639ZM41.9207 24.9982C43.3095 25.6793 43.9663 27.2363 43.5168 28.7824C43.3013 29.5234 42.3974 30.4666 41.6644 30.7153C40.1331 31.2345 38.4835 30.5767 37.7913 29.1706C36.9623 27.4868 37.7572 25.5127 39.5274 24.8586C40.1003 24.6469 41.3532 24.72 41.9207 24.9982Z" fill="#000"/></svg>