<svg width="32" height="32" viewBox="0 0 32 32" fill="none" xmlns="http://www.w3.org/2000/svg"><path d="M32 16C32 7.16344 24.8366 0 16 0C7.16344 0 0 7.16344 0 16C0 24.8366 7.16344 32 16 32C24.8366 32 32 24.8366 32 16Z" fill="#fff"/><path d="M8 15.68C8 12.0587 8 10.2507 9.12 9.12C10.256 8 12.064 8 15.68 8H16.32C19.9413 8 21.7493 8 22.88 9.12C24 10.256 24 12.064 24 15.68V16.32C24 19.9413 24 21.7493 22.88 22.88C21.744 24 19.936 24 16.32 24H15.68C12.0587 24 10.2507 24 9.12 22.88C8 21.744 8 19.936 8 16.32V15.68Z" fill="#07F"/><path d="M16.5121 19.5251C12.8641 19.5251 10.7841 17.0291 10.6987 12.8691H12.5334C12.5921 15.9198 13.9361 17.2104 15.0027 17.4771V12.8691H16.7254V15.4984C17.7761 15.3864 18.8854 14.1864 19.2587 12.8638H20.9761C20.836 13.5484 20.5563 14.1969 20.1544 14.7686C19.7525 15.3403 19.2369 15.823 18.6401 16.1864C19.3062 16.518 19.8944 16.9869 20.366 17.5624C20.8376 18.1379 21.1819 18.8068 21.3761 19.5251H19.4827C19.0774 18.2611 18.0641 17.2798 16.7254 17.1464V19.5251H16.5174H16.5121Z" fill="#fff"/></svg>